<?xml version="1.0" encoding="utf-8"?>
<!-- Generator: Adobe Illustrator 22.1.0, SVG Export Plug-In . SVG Version: 6.00 Build 0)  -->
<svg version="1.1" id="Layer_1" xmlns="http://www.w3.org/2000/svg" xmlns:xlink="http://www.w3.org/1999/xlink" x="0px" y="0px"
	 viewBox="0 0 413.1 413.1" style="enable-background:new 0 0 413.1 413.1;" xml:space="preserve">
<g>
	<path d="M77.9,49.1c-16.4,0-29.7,13.3-29.7,29.7s13.3,29.7,29.7,29.7s29.7-13.3,29.7-29.7S94.3,49.1,77.9,49.1z M77.9,95.2
		c-9.1,0-16.5-7.4-16.5-16.5s7.4-16.5,16.5-16.5s16.5,7.4,16.5,16.5S87,95.2,77.9,95.2z"/>
	<circle cx="338.5" cy="68.9" r="6.6"/>
	<circle cx="312.1" cy="68.9" r="6.6"/>
	<circle cx="351.7" cy="88.6" r="6.6"/>
	<circle cx="325.3" cy="88.6" r="6.6"/>
	<circle cx="285.7" cy="68.9" r="6.6"/>
	<circle cx="298.9" cy="88.6" r="6.6"/>
	<circle cx="259.3" cy="68.9" r="6.6"/>
	<circle cx="272.5" cy="88.6" r="6.6"/>
	<circle cx="233" cy="68.9" r="6.6"/>
	<circle cx="246.2" cy="88.6" r="6.6"/>
	<path d="M77.9,174.4c-16.4,0-29.7,13.3-29.7,29.7s13.3,29.7,29.7,29.7s29.7-13.3,29.7-29.7S94.3,174.4,77.9,174.4z M77.9,220.6
		c-9.1,0-16.5-7.4-16.5-16.5c0-9.1,7.4-16.5,16.5-16.5s16.5,7.4,16.5,16.5C94.4,213.2,87,220.6,77.9,220.6z"/>
	<path d="M77.9,299.8c-16.4,0-29.7,13.3-29.7,29.7c0,16.4,13.3,29.7,29.7,29.7s29.7-13.3,29.7-29.7
		C107.6,313.1,94.3,299.8,77.9,299.8z M77.9,345.9c-9.1,0-16.5-7.4-16.5-16.5c0-9.1,7.4-16.5,16.5-16.5s16.5,7.4,16.5,16.5
		C94.4,338.5,87,345.9,77.9,345.9z"/>
	<path d="M404.5,117.6V39.9c0-16.8-13.6-30.4-30.4-30.4h-335C22.3,9.5,8.7,23.1,8.7,39.9v77.7c0,9.7,4.6,18.2,11.7,23.8
		c-7.1,5.6-11.7,14.1-11.7,23.8V243c0,9.7,4.6,18.2,11.7,23.8c-7.1,5.6-11.7,14.1-11.7,23.8v77.7c0,16.8,13.6,30.4,30.4,30.4h183.9
		c17.7,3.3,37.1,4.9,56.2,4.9c57.2,0,117.5-14.8,124.7-43.2c0.4-0.9,0.7-1.9,0.7-2.9v-59.4v-2.5v-2.5v-54.4v-2.5v-2.5v-56.9v-2.5
		c0-1-0.2-1.9-0.6-2.7c-2.3-9.7-10.9-17.8-23.5-24.3C394.1,144.5,404.5,132.2,404.5,117.6z M21.8,243v-77.7
		c0-9.5,7.7-17.2,17.2-17.2h137.6c-11.9,6.4-20,14.3-22.2,23.6c-0.4,0.8-0.6,1.8-0.6,2.7v2.5v56.9v2.5v2.5v21.4H39.1
		C29.6,260.2,21.8,252.5,21.8,243z M171.1,202.5c0.3,0.2,0.6,0.4,0.9,0.6c1.2,0.7,2.4,1.4,3.6,2.1c0.4,0.2,0.7,0.4,1.1,0.6
		c1.5,0.8,3.1,1.6,4.8,2.4c0.3,0.1,0.5,0.2,0.8,0.4c1.5,0.7,3,1.3,4.5,1.9c0.5,0.2,0.9,0.4,1.4,0.5c1.8,0.7,3.7,1.4,5.6,2.1
		c0.1,0,0.2,0.1,0.3,0.1c1.8,0.6,3.7,1.2,5.6,1.8c0.5,0.2,1,0.3,1.6,0.5c1.9,0.6,3.8,1.1,5.8,1.6c0.2,0,0.3,0.1,0.5,0.1
		c2.1,0.5,4.3,1.1,6.5,1.6c0.6,0.1,1.1,0.2,1.7,0.4c1.9,0.4,3.8,0.8,5.7,1.2c0.4,0.1,0.8,0.2,1.1,0.2c2.3,0.4,4.6,0.8,6.9,1.2
		c0.5,0.1,1.1,0.2,1.7,0.3c1.9,0.3,3.9,0.6,5.8,0.8c0.5,0.1,1.1,0.1,1.6,0.2c2.4,0.3,4.7,0.6,7.1,0.8c0.5,0.1,1,0.1,1.5,0.1
		c2,0.2,4,0.4,6.1,0.5c0.6,0,1.2,0.1,1.8,0.1c2.4,0.2,4.9,0.3,7.3,0.5c0.3,0,0.7,0,1,0c2.1,0.1,4.3,0.2,6.4,0.2c0.6,0,1.3,0,1.9,0.1
		c2.5,0.1,4.9,0.1,7.4,0.1c2.5,0,4.9,0,7.4-0.1c0.6,0,1.3,0,1.9-0.1c2.2-0.1,4.3-0.1,6.4-0.2c0.3,0,0.7,0,1,0
		c2.4-0.1,4.9-0.3,7.3-0.5c0.6,0,1.2-0.1,1.8-0.1c2-0.2,4.1-0.3,6.1-0.5c0.5,0,1-0.1,1.5-0.1c2.4-0.3,4.8-0.5,7.1-0.8
		c0.5-0.1,1.1-0.1,1.6-0.2c1.9-0.3,3.9-0.5,5.8-0.8c0.6-0.1,1.1-0.2,1.7-0.3c2.3-0.4,4.6-0.8,6.9-1.2c0.4-0.1,0.8-0.2,1.1-0.2
		c1.9-0.4,3.8-0.8,5.7-1.2c0.6-0.1,1.1-0.2,1.7-0.4c2.2-0.5,4.4-1,6.5-1.6c0.2,0,0.3-0.1,0.5-0.1c2-0.5,3.9-1,5.8-1.6
		c0.5-0.2,1-0.3,1.6-0.5c1.9-0.6,3.8-1.2,5.6-1.8c0.1,0,0.2-0.1,0.3-0.1c1.9-0.7,3.8-1.4,5.6-2.1c0.5-0.2,0.9-0.4,1.4-0.5
		c1.5-0.6,3-1.3,4.5-1.9c0.3-0.1,0.5-0.2,0.8-0.4c1.7-0.8,3.3-1.6,4.8-2.4c0.4-0.2,0.7-0.4,1.1-0.6c1.3-0.7,2.5-1.4,3.6-2.1
		c0.3-0.2,0.6-0.4,0.9-0.6c1.4-0.9,2.7-1.8,3.9-2.7c0.1-0.1,0.2-0.1,0.3-0.2v32.9c-0.2,0.8-0.3,1.5-0.1,2.3c0.1,0.5,0.2,1,0.2,1.4
		c0,0.7-0.2,1.5-0.4,2.2c-0.1,0.6-0.3,1.1-0.6,1.7c-0.2,0.5-0.5,1-0.8,1.5c-0.3,0.5-0.6,1-1,1.5c-0.5,0.7-1.1,1.4-1.7,2.1
		c-0.2,0.3-0.5,0.5-0.8,0.8c-14,13.5-55.2,25.7-107,25.7c-51.8,0-93-12.2-107-25.7c-0.3-0.3-0.6-0.6-0.8-0.9c-0.6-0.7-1.2-1.3-1.7-2
		c-0.4-0.5-0.7-1-1-1.6c-0.3-0.5-0.5-0.9-0.7-1.4c-0.3-0.6-0.4-1.2-0.6-1.8c-0.2-0.7-0.4-1.4-0.4-2.1c0-0.5,0.1-0.9,0.1-1.4
		c0.1-0.9,0.1-1.7-0.1-2.5v-32.7c0.1,0.1,0.2,0.1,0.3,0.2C168.5,200.7,169.7,201.6,171.1,202.5z M390.3,299.5
		c-0.2,0.5-0.5,1-0.8,1.5c-0.3,0.5-0.6,1-1,1.5c-0.5,0.7-1.1,1.4-1.7,2.1c-0.2,0.3-0.5,0.5-0.8,0.8c-14,13.5-55.2,25.7-107,25.7
		c-51.8,0-93-12.2-107-25.7c-0.3-0.3-0.6-0.6-0.8-0.9c-0.6-0.7-1.2-1.3-1.7-2c-0.4-0.5-0.7-1-1-1.6c-0.3-0.5-0.5-0.9-0.7-1.4
		c-0.3-0.6-0.4-1.2-0.6-1.8c-0.2-0.6-0.3-1.2-0.3-1.9v-0.8c0-0.3,0-0.6,0.1-0.9c0.1-0.6,0-1.1-0.1-1.7l0-32.4v-1.2
		c0.3,0.2,0.6,0.4,0.9,0.6c0.8,0.6,1.7,1.2,2.6,1.8c0.7,0.5,1.5,1,2.2,1.4c1.2,0.7,2.4,1.4,3.6,2.1c0,0,0,0,0,0
		c13.8,7.5,32.7,12.9,53.6,16.2c0.2,0,0.3,0,0.5,0.1c6.7,1,13.7,1.9,20.7,2.5c1.5,0.1,3,0.3,4.5,0.4c1.5,0.1,2.9,0.2,4.4,0.3
		c2,0.1,4,0.2,6,0.3c1.2,0,2.3,0.1,3.5,0.1c3.2,0.1,6.4,0.2,9.6,0.2c3.2,0,6.4-0.1,9.6-0.2c1.2,0,2.3-0.1,3.5-0.1
		c2-0.1,4-0.2,5.9-0.3c1.5-0.1,3-0.2,4.5-0.3c1.5-0.1,2.9-0.2,4.4-0.4c7.1-0.6,14.1-1.4,20.9-2.5c0.1,0,0.2,0,0.3,0
		c22.9-3.6,43.3-9.7,57.3-18.3c0.8-0.5,1.5-0.9,2.2-1.4c0.9-0.6,1.8-1.2,2.6-1.8c0.3-0.2,0.6-0.4,0.9-0.6v32.9
		c-0.2,0.8-0.3,1.5-0.1,2.3c0.1,0.5,0.1,1,0.1,1.4c0,0.7-0.2,1.5-0.4,2.2C390.8,298.4,390.6,299,390.3,299.5z M39.1,385.5
		c-9.5,0-17.2-7.7-17.2-17.2v-77.7c0-9.5,7.7-17.2,17.2-17.2h114.7v19.8v2.5v2.5v59.4v6.6h2c0.1,0.2,0.3,0.5,0.4,0.7
		c0.2,0.5,0.5,1,0.8,1.5c0.5,1,1.2,1.9,1.8,2.9c0.7,1,1.4,1.9,2.2,2.8c0.4,0.5,0.8,0.9,1.3,1.4c2.5,2.6,5.6,5,9.1,7.3
		c0.1,0.1,0.2,0.2,0.4,0.2c2.5,1.6,5.3,3.2,8.2,4.6L39.1,385.5L39.1,385.5z M391.3,355.8c-0.1,0.2-0.1,0.4-0.1,0.6
		c-2.7,16.4-48.4,34.1-112,34.1c-20.3,0-38.8-1.8-54.6-4.8l0-0.1c-32.8-6.2-51-16.7-56-25.5c0,0,0,0,0,0c-0.2-0.4-0.4-0.8-0.6-1.2
		c-0.3-0.8-0.7-1.6-0.8-2.5l-0.1-38c0.2,0.2,0.5,0.4,0.8,0.5c0.8,0.6,1.7,1.2,2.6,1.8c0.7,0.5,1.5,1,2.2,1.4
		c1.2,0.7,2.4,1.4,3.6,2.1c0,0,0,0,0,0c13.8,7.5,32.7,12.9,53.6,16.2c0.2,0,0.3,0,0.5,0.1c6.7,1,13.7,1.9,20.7,2.5
		c1.5,0.1,3,0.3,4.5,0.4c1.5,0.1,2.9,0.2,4.4,0.3c2,0.1,4,0.2,6,0.3c1.2,0,2.3,0.1,3.5,0.1c3.2,0.1,6.4,0.2,9.6,0.2
		c3.2,0,6.4-0.1,9.6-0.2c1.2,0,2.3-0.1,3.5-0.1c2-0.1,4-0.2,5.9-0.3c1.5-0.1,3-0.2,4.5-0.3c1.5-0.1,2.9-0.2,4.4-0.4
		c7.1-0.6,14.1-1.4,20.9-2.5c0.1,0,0.2,0,0.3,0c22.9-3.6,43.3-9.7,57.3-18.3c0.8-0.5,1.5-0.9,2.2-1.4c0.9-0.6,1.8-1.2,2.6-1.8
		c0.3-0.2,0.6-0.4,0.9-0.6C391.3,318.3,391.3,355.8,391.3,355.8z M391.3,176.9c0,16.7-48,35.5-112.2,35.5
		c-64.2,0-112.2-18.7-112.2-35.5c0-0.8,0.2-1.7,0.4-2.6c0.3-0.9,0.6-1.7,1.1-2.6c0,0,0-0.1,0.1-0.1c2.2-3.7,6.6-7.6,13.4-11.4
		c0.3-0.2,0.6-0.3,0.9-0.5c1.2-0.6,2.4-1.3,3.7-1.9c1.5-0.7,3.1-1.4,4.7-2.1c0.3-0.1,0.7-0.3,1-0.4c7.7-3.1,16.9-5.8,27.3-8
		c3.3-0.7,6.6-1.3,10-1.9c0.9-0.2,1.8-0.3,2.7-0.5c29.5-4.6,64-4.6,93.5,0c0.9,0.1,1.8,0.3,2.7,0.5c3.4,0.6,6.7,1.2,9.9,1.9
		C370.7,154.2,391.3,165.9,391.3,176.9z M391.3,117.6c0,9.5-7.7,17.2-17.2,17.2h-30.5c-0.4-0.1-0.8-0.1-1.2-0.2
		c-4.3-0.9-8.8-1.8-13.3-2.5c-0.4-0.1-0.9-0.1-1.3-0.2c-15.6-2.4-32.2-3.7-48.6-3.7c-16.4,0-33,1.2-48.5,3.7
		c-0.5,0.1-0.9,0.1-1.4,0.2c-4.5,0.7-9,1.6-13.3,2.5c-0.4,0.1-0.8,0.1-1.2,0.2H39.1c-9.5,0-17.2-7.7-17.2-17.2V39.9
		c0-9.5,7.7-17.2,17.2-17.2h335c9.5,0,17.2,7.7,17.2,17.2V117.6z"/>
</g>
</svg>
