<?xml version="1.0" encoding="utf-8"?>
<!-- Generator: Adobe Illustrator 22.1.0, SVG Export Plug-In . SVG Version: 6.00 Build 0)  -->
<svg version="1.1" id="Layer_1" xmlns="http://www.w3.org/2000/svg" xmlns:xlink="http://www.w3.org/1999/xlink" x="0px" y="0px"
	 viewBox="0 0 600 600" style="enable-background:new 0 0 600 600;" xml:space="preserve">
<style type="text/css">
	.st0{fill:#77BC1F;}
	.st1{fill:#E23237;}
	.st2{fill:#B52E31;}
	.st3{fill:#FFFFFF;}
</style>
<path class="st0" d="M339.9,26c-5.1,12.2-11.5,23.7-19.3,34.3c-34-34-80.2-53.1-128.3-53.1C92.9,7.2,11,89.1,11,188.8
	c0,49.7,20.4,97.3,56.3,131.6l6.7,5.9c32.7,27.6,74.1,42.7,116.8,42.7c94.6,0,174.1-74.1,180.8-168.6
	C376.6,154.1,363.1,95.6,339.9,26L339.9,26z M93.1,321.4c-2.9,3.6-7.4,5.7-12.1,5.7c-8.5,0-15.5-7-15.5-15.5S72.6,296,81,296
	c3.5,0,7,1.2,9.8,3.5C97.4,304.9,98.5,314.7,93.1,321.4L93.1,321.4z M339.2,267c-44.8,59.7-140.3,39.6-201.6,42.4
	c0,0-10.9,0.7-21.8,2.4c0,0,4.1-1.7,9.4-3.8c43-15,63.4-17.9,89.5-31.3c49.2-25.1,97.9-79.9,108-136.9
	c-18.7,54.9-75.6,102-127.3,121.2c-35.5,13.1-99.5,25.8-99.5,25.8l-2.6-1.4c-43.6-21.2-44.9-115.8,34.3-146.3
	c34.7-13.4,67.9-6,105.4-15c40-9.5,86.3-39.6,105.2-78.8C359.3,108.2,384.7,206.3,339.2,267L339.2,267z"/>
<g>
	<path class="st1" d="M242.8,284.3l173.7-61.9l178.3,60.8l-28.9,229.8l-149.5,82.8L269.3,514L242.8,284.3z"/>
	<path class="st2" d="M594.8,283.2l-178.3-60.8v373.3l149.5-82.6L594.8,283.2L594.8,283.2z"/>
	<path class="st3" d="M416.7,266L416.7,266L308.5,506.8l40.4-0.7l21.7-54.3h46.2h0.1h50.7l23.8,55l38.6,0.7L416.7,266L416.7,266z
		 M417,343.1l36.6,76.5h-35.1h-1.8h-31.9L417,343.1L417,343.1z"/>
</g>
</svg>
