<?xml version="1.0" encoding="utf-8"?>
<!-- Generator: Adobe Illustrator 22.1.0, SVG Export Plug-In . SVG Version: 6.00 Build 0)  -->
<svg version="1.1" id="Capa_1" xmlns="http://www.w3.org/2000/svg" xmlns:xlink="http://www.w3.org/1999/xlink" x="0px" y="0px"
	 viewBox="0 0 32 32" style="enable-background:new 0 0 32 32;" xml:space="preserve">
<style type="text/css">
	.st0{fill:url(#SVGID_1_);}
	.st1{fill:#FFFFFF;}
</style>
<linearGradient id="SVGID_1_" gradientUnits="userSpaceOnUse" x1="5.0718" y1="34.7338" x2="26.9282" y2="-3.1226">
	<stop  offset="0" style="stop-color:#44579C"/>
	<stop  offset="1" style="stop-color:#56A37F"/>
</linearGradient>
<rect x="0" y="-0.2" class="st0" width="32" height="32"/>
<g>
	<rect x="13.8" y="7.6" class="st1" width="1.5" height="1.5"/>
	<rect x="16.7" y="7.6" class="st1" width="1.5" height="1.5"/>
	<path class="st1" d="M25.5,12.8v-2.4H24v2.9l-2.3,2.3c-0.1-0.2-0.3-0.3-0.4-0.4c0.4-0.4,0.6-1,0.6-1.5c0-0.9-0.5-1.7-1.4-2.1
		C22,9,21,5.8,18.4,4.4c-2.6-1.3-5.7-0.4-7.1,2.2c-0.8,1.5-0.8,3.4,0,4.9c-0.3,0.1-0.5,0.3-0.7,0.5c-0.4,0.4-0.7,1-0.7,1.6
		c0,0.6,0.2,1.1,0.6,1.5c-0.1,0.1-0.3,0.3-0.4,0.4L8,13.3v-2.9H6.5v2.4H4v1.5h2.9l2.5,2.5c-1.9,3.7-0.5,8.2,3.1,10.1
		c3.7,1.9,8.2,0.5,10.1-3.1c1.1-2.2,1.1-4.8,0-7l2.5-2.5H28v-1.5L25.5,12.8L25.5,12.8z M16,5.4c2.1,0,3.7,1.7,3.7,3.7
		c0,0.8-0.3,1.6-0.8,2.2h-6c-0.5-0.6-0.8-1.4-0.8-2.2C12.3,7,13.9,5.4,16,5.4z M11.7,13c0.1-0.1,0.3-0.2,0.5-0.2h7.5
		c0.4,0,0.7,0.3,0.7,0.7c0,0.2-0.1,0.4-0.2,0.5c-0.1,0.1-0.2,0.2-0.3,0.2c-0.1,0-0.1,0-0.2,0h-7.5c-0.1,0-0.1,0-0.2,0
		c-0.3-0.1-0.5-0.4-0.5-0.7C11.5,13.4,11.6,13.2,11.7,13z M16,26.3c-3.3,0-6-2.7-6-6c0-1.7,0.7-3.4,2.1-4.5c0.1,0,0.1,0,0.2,0H19
		v4.5h1.5v-3.9c1,1.1,1.5,2.5,1.5,3.9C22,23.6,19.3,26.3,16,26.3z"/>
	<rect x="15.3" y="17.3" class="st1" width="1.5" height="1.5"/>
	<rect x="15.3" y="20.3" class="st1" width="1.5" height="1.5"/>
</g>
</svg>
