<?xml version="1.0" encoding="utf-8"?>
<!-- Generator: Adobe Illustrator 22.0.0, SVG Export Plug-In . SVG Version: 6.00 Build 0)  -->
<svg version="1.1"
	 id="svg27450" inkscape:export-filename="./tux-large.png" inkscape:export-xdpi="300" inkscape:export-ydpi="300" inkscape:version="0.91 r13725" sodipodi:docname="Classic_flat_look_3D.svg" xmlns:cc="http://creativecommons.org/ns#" xmlns:dc="http://purl.org/dc/elements/1.1/" xmlns:inkscape="http://www.inkscape.org/namespaces/inkscape" xmlns:rdf="http://www.w3.org/1999/02/22-rdf-syntax-ns#" xmlns:sodipodi="http://sodipodi.sourceforge.net/DTD/sodipodi-0.dtd" xmlns:svg="http://www.w3.org/2000/svg"
	 xmlns="http://www.w3.org/2000/svg" xmlns:xlink="http://www.w3.org/1999/xlink" x="0px" y="0px" viewBox="0 0 162.9 158.6"
	 style="enable-background:new 0 0 162.9 158.6;" xml:space="preserve">
<style type="text/css">
	.st0{fill:#191919;}
	.st1{fill:#FCC624;}
	.st2{fill:#F5F5F5;}
	.st3{fill:#E09D00;}
	.st4{fill:#D9DADB;}
	.st5{fill:#6E6F70;}
</style>
<title  id="title20046">Tux</title>
<sodipodi:namedview  bordercolor="#666666" borderopacity="0.41176471" fit-margin-bottom="0" fit-margin-left="0" fit-margin-right="0" fit-margin-top="0" id="base" inkscape:current-layer="g4472" inkscape:cx="525.7755" inkscape:cy="349.87465" inkscape:document-units="px" inkscape:guide-bbox="true" inkscape:object-nodes="false" inkscape:object-paths="true" inkscape:pageopacity="0.0" inkscape:pageshadow="2" inkscape:showpageshadow="false" inkscape:snap-intersection-paths="false" inkscape:snap-nodes="true" inkscape:snap-smooth-nodes="false" inkscape:window-height="1004" inkscape:window-maximized="1" inkscape:window-width="1920" inkscape:window-x="0" inkscape:window-y="0" inkscape:zoom="0.99999999" pagecolor="#ffffff" showborder="true" showgrid="false" showguides="true">
	</sodipodi:namedview>
<defs>
	
	<inkscape:path-effect  effect="spiro" id="path-effect4669-1" is_visible="true"></inkscape:path-effect>
	<inkscape:path-effect  effect="spiro" id="path-effect4669-4-3" is_visible="true"></inkscape:path-effect>
	<inkscape:path-effect  effect="spiro" id="path-effect14972-2-2" is_visible="true"></inkscape:path-effect>
	<inkscape:path-effect  effect="spiro" id="path-effect15017-9" is_visible="true"></inkscape:path-effect>
	<inkscape:path-effect  effect="spiro" id="path-effect29716-6-1" is_visible="true"></inkscape:path-effect>
	<inkscape:path-effect  effect="spiro" id="path-effect29716-0-0" is_visible="true"></inkscape:path-effect>
	<inkscape:path-effect  effect="spiro" id="path-effect29716-0-8-3" is_visible="true"></inkscape:path-effect>
	<inkscape:path-effect  effect="spiro" id="path-effect14300-7" is_visible="true"></inkscape:path-effect>
	<inkscape:path-effect  effect="spiro" id="path-effect14300-2-7" is_visible="true"></inkscape:path-effect>
	<inkscape:path-effect  effect="spiro" id="path-effect14300-2-2-0" is_visible="true"></inkscape:path-effect>
	<inkscape:path-effect  effect="spiro" id="path-effect4582-3" is_visible="true"></inkscape:path-effect>
	<inkscape:path-effect  effect="spiro" id="path-effect4500-7" is_visible="true"></inkscape:path-effect>
	<inkscape:path-effect  effect="spiro" id="path-effect29707-7-6" is_visible="true"></inkscape:path-effect>
	<inkscape:path-effect  effect="spiro" id="path-effect29553-7" is_visible="true"></inkscape:path-effect>
	<inkscape:path-effect  effect="spiro" id="path-effect28463-4" is_visible="true"></inkscape:path-effect>
	<inkscape:path-effect  effect="spiro" id="path-effect28489-4" is_visible="true"></inkscape:path-effect>
	<inkscape:path-effect  effect="spiro" id="path-effect28273-54-7" is_visible="true"></inkscape:path-effect>
	<inkscape:path-effect  effect="spiro" id="path-effect28273-44" is_visible="true"></inkscape:path-effect>
	<inkscape:path-effect  effect="spiro" id="path-effect28384-7" is_visible="true"></inkscape:path-effect>
	<inkscape:path-effect  effect="spiro" id="path-effect29455-3" is_visible="true"></inkscape:path-effect>
	<inkscape:path-effect  effect="spiro" id="path-effect28974-8" is_visible="true"></inkscape:path-effect>
	<inkscape:path-effect  effect="spiro" id="path-effect28881-6" is_visible="true"></inkscape:path-effect>
	<inkscape:path-effect  effect="spiro" id="path-effect28851-0" is_visible="true"></inkscape:path-effect>
	<inkscape:path-effect  effect="spiro" id="path-effect28273-4-2" is_visible="true"></inkscape:path-effect>
	<inkscape:path-effect  effect="spiro" id="path-effect28797-81" is_visible="true"></inkscape:path-effect>
	<inkscape:path-effect  effect="spiro" id="path-effect28797-8-1" is_visible="true"></inkscape:path-effect>
	<inkscape:path-effect  effect="spiro" id="path-effect28463-0-7" is_visible="true"></inkscape:path-effect>
	<inkscape:path-effect  effect="spiro" id="path-effect28463-8-0" is_visible="true"></inkscape:path-effect>
	<inkscape:path-effect  effect="spiro" id="path-effect29721-2" is_visible="true"></inkscape:path-effect>
	<inkscape:path-effect  effect="spiro" id="path-effect28714-5" is_visible="true"></inkscape:path-effect>
	<inkscape:path-effect  effect="spiro" id="path-effect29678-4-6" is_visible="true"></inkscape:path-effect>
	<inkscape:path-effect  effect="spiro" id="path-effect29678-1" is_visible="true"></inkscape:path-effect>
	<inkscape:path-effect  effect="spiro" id="path-effect29672-0" is_visible="true"></inkscape:path-effect>
</defs>
<g id="layer1" transform="translate(160,342.63782)" inkscape:groupmode="layer" inkscape:label="Layer 1">
	<g id="g4472" transform="matrix(0.32847095,0,0,0.32847095,182.2226,-19.869582)">
		
			<path id="path4734" inkscape:connector-curvature="0" sodipodi:nodetypes="csssscccccccccccccccccccccccccccccccccccccccccccccccccsccsszscscccccc" class="st0" d="
			M-849.2-946.5c-4.3,8.6-7.2,19.1-7.4,32c-1.1,54.7,2.4,46.2,0.3,71.3c-1,11.5-2.3,15.8-8.1,29.7c-6.4,15.1-13.2,23.8-22.7,37
			c-11.8,16.5-28,39-36.9,57.1c-5.1,10.3-9.3,25.9-10.9,36.3c-1.1,6.9-1.2,15.9-0.9,24.3c-6.3,5.4-9.5,14.6-15.9,21.6
			c-4.2,4.5-12.2,6-21.1,7.7c-7.6,1.5-15.7,4.4-18.5,9c-0.3,0.5-0.6,1-0.9,1.6c-6.4,12.4,1.4,33.6-2.4,49.4
			c-1.6,6.7-4.4,13-4.5,18.7c0,3,0.7,6.1,2.7,9.7c2.3,3.9,7.2,6.8,14.3,9.2c6.6,2.3,15.2,4.3,25.1,6.6l3.4,0.8c4.5,1.1,9,2.1,13.5,3
			c2.9,0.6,4.6,0.9,6.1,1.2c6.4,1.1,8.8,1.6,25.7,8.2c4.1,1.6,8.6,3.3,13.4,4.8c9.5,2.9,20.2,5.1,30.1,3.3c5-0.9,9.7-2.8,13.9-6.1
			c4.4-3.4,8.5-8,11.5-12.6c0.8-1.2,1.5-2.5,2.2-3.8c0.6-1.1,1.1-2.3,1.5-3.4c0.4-1.1,0.7-2.2,1-3.3c4-2,13.9-5,37.4-5.2
			c35.4-0.3,59,12.4,59,12.4l0-0.3c0.3,1.7,0.7,3.2,1.1,4.7c0.7,2.2,1.6,4.2,2.8,6.1c1.2,1.9,2.8,3.7,4.7,5.5
			c2.1,1.9,4.6,3.7,7.5,5.3c2.7,1.4,5.7,2.6,9,3.5c3,0.8,6.3,1.3,9.8,1.5c3.2,0.2,6.6,0,10.2-0.5c6-0.9,10.6-2.7,14.5-5.2
			c3.9-2.4,7-5.2,10.2-8.2l0.1-0.1l0,0c2.1-1.9,4.3-3.9,6.7-5.7c1.6-1.2,3.1-2.3,4.5-3.4c2.1-1.6,3.2-2.5,4.4-3.4
			c3.5-2.7,7.1-5.6,10.7-8.3c3.7-2.8,7.7-5.6,12-8.4c3.3-2.1,6.9-4.5,10.5-6.8c3.6-2.4,7.5-4.9,11.1-7.4c6.4-4.4,15.3-9.8,18.7-16.8
			c1.1-2.2,1.7-4.5,1.6-7c-0.5-8-10-15.3-18.4-22.5c-4.1-3.5-8.2-7-10.4-10.6c-1.7-2.9-3.8-7.2-4.4-10.4c-1.7-8.7-1.6-15.3-5.8-21.1
			c-3.8-5.3-7.1-6.8-13-7.5c-0.9-0.1-1.7-0.2-2.5-0.4c3.8-14,5.1-22.9,4-34.6c-3.9-41-30.1-71-44.4-91.3
			c-9.3-13.3-20.1-26.9-24.8-36c-4.7-9.1-8.1-21.7-10.4-29.1c-2.2-7.2-3.4-24.4-3.7-52.2c1.1-42.7-12.2-62.4-28.1-74.6
			c-16-12.3-39.4-12.1-47.9-11.4l0,0l0,0v0C-805.5-981.7-835.3-974.6-849.2-946.5L-849.2-946.5z"/>
		<path id="path4736" inkscape:connector-curvature="0" class="st1" d="M-955.5-629.2c-8.4,4-27.8,4-32.5,12
			c-5.2,8.8-1.8,18.6-1.8,29.9c0,8-0.1,16.9-3.5,26.4c-2.8,7.8-3.7,10.6,0.3,17.4c4,6.9,21.1,10.2,44.4,15.7
			c23.2,5.5,15.8,1.4,41.9,11.6c16.1,6.3,38.9,14,53.6,2.5c5.4-4.3,14.3-13.9,14.9-23.2c0.3-5.4-0.2-11.1-1.5-14.5
			c-4.3-11.6-12.8-16.5-20.8-28.6c-14.8-22.4-30.5-43.7-43.1-62.4c-8.9-13.2-16-16.4-22-15.4C-944.1-654.5-938.2-637.6-955.5-629.2
			L-955.5-629.2L-955.5-629.2L-955.5-629.2L-955.5-629.2z"/>
		<path id="path4738" inkscape:connector-curvature="0" class="st1" d="M-720-648.3c-8.2,5.8-6.4,23-6.9,32.1
			c-0.7,13.9-0.8,29.4-1.3,35.6c-0.8,10.2-8.5,33.3-7.6,44.2c0.9,10.9,1.7,17.3,8.5,23.5c6.8,6.2,18.7,10.9,33.5,8.8
			c14.7-2.1,20.3-11.3,29.9-18.5c9.5-7.2,19.4-15.7,32-23.8c12.6-8.1,32.9-21.4,35.8-25c2.9-3.6,4.9-6.7,2.8-11.4
			c-2.1-4.7-9.5-12-17.5-18.7c-21-17.3-11.9-33.5-20.7-42c-2.7-2.9-4.7-4.5-7.8-5.1c-16.7-3.4-21.3,3.2-31.2,2.2
			c-10.6-1-6.6,1.3-28.4-1.6C-706.3-648.7-714.8-651.7-720-648.3L-720-648.3L-720-648.3z"/>
		<path id="path4740" inkscape:connector-curvature="0" class="st2" d="M-856.7-780.6c-7.5,16.3-7.1,10.8-12.1,27.9
			c-7,6.3-14.6,23.3-19.7,38c-6.4,21.3-11.3,43.2-5.3,68.6c2.4,2.6,4.3,5,6.5,7.1c3.4,3.3,7.2,5.9,11.7,9.4
			c16,12.2,27.3,18.6,29.5,26.6c2.9,10.6-3.7,17.5-11.9,21.8c6,6,25.2,18.4,60.3,16.8c30.9-1.4,50.2-13,66.7-33.2
			c0.1-4.6,0.6-12.4,0.8-20.8c0.2-8,0.3-16,1.5-22.2c0.3-1.5,0.8-2.8,1.3-4.1c2-5,7.4-8.4,12.6-8.6c2.7-0.1,5.6-0.3,8.3,0.2
			c4.2-32.7,0.9-55.3-15.7-89.9c-1.3-2.4-7.4-12.7-11.1-15.6c-2.9-14-3.2-13.3-9-26.1c-8.7-19.4-11.8-41.8-14.5-55
			c-1.8,0.9-5,2.2-9.8,6c-3.5,2.7-10,8.4-14.9,11.8c-3.2,2.2-6.8,4.2-10.3,5.7c-5,2.2-9.9,3.5-13.6,3.6c-13.2,0.7-19.5-2.6-25.6-8.9
			c-2.5-2.6-4.4-5.5-7.6-9.1c-1.4-1.6-3.4-3.6-5.4-5.1C-843.7-833.9-849.3-797-856.7-780.6L-856.7-780.6z M-757.2-842.8
			c0,0,0-0.1,0.1-0.1C-757.2-842.9-757.2-842.8-757.2-842.8z M-797.4-878.2c-0.4-3.6-0.5-10.3,2-18.7c3.9-12.9,18-21.5,30-15.4
			c12,6.1,14.2,21.8,11.3,30.7c-1.8,5.5-5.9,11.9-9.1,15.9c-2.4-1-5.5-2.1-9.2-3.4c2.2-1.2,4.1-3.2,5.5-5.8c4-7.2,2.5-16.6-3.1-20.9
			c-5.7-4.4-13.5-2.1-17.4,5.2c-2.8,5-2.9,11.1-0.8,15.8C-791.6-876.3-794.5-877.4-797.4-878.2L-797.4-878.2L-797.4-878.2
			L-797.4-878.2L-797.4-878.2z M-841.2-909.2c11.2-3.9,17.9,5.5,20.6,18.9c0.8,4.1,0.9,8.2,0.4,12c-0.3,0.1-0.6,0.2-1,0.4
			c-1.3,0.5-2.7,1.1-4.3,2c0.2-0.9,0.4-1.8,0.5-2.8c0.9-7.5-2.7-15.3-7.9-17.3c-5.3-2.1-10.3,2.4-11.1,9.9c-0.9,7.2,2.4,14.6,7.3,17
			c-0.6,0.4-1.3,0.9-1.9,1.3c-0.8,0.6-1.6,1.2-2.4,1.8c-3.9-3.8-6.5-9.8-8-16.2C-851.7-893.8-848.8-906.5-841.2-909.2L-841.2-909.2
			L-841.2-909.2L-841.2-909.2L-841.2-909.2z"/>
		<path id="path4742" inkscape:connector-curvature="0" class="st3" d="M-727.6-596.2c0.4,8,1.6,16.6,1.1,24.1
			c-1.1,17-0.6,39.7,5.1,46.9c10.6,13.3,24.6,12.8,42.9,6.3c9.6-3.4,16.1-7.5,28.4-14.9c0.6-0.4,1.2-0.7,1.8-1.1
			c-5.5,4.2-10.6,8.4-15.6,12.1c-9.6,7.2-15.1,16.3-29.9,18.5c-14.7,2.1-26.7-2.5-33.5-8.8c-6.8-6.2-7.6-12.6-8.5-23.5
			c-0.4-4.1,0.5-9.9,1.8-16.2c2.1-10.3,5.3-21.7,5.8-28C-727.9-583.8-727.8-589.5-727.6-596.2L-727.6-596.2z"/>
		<path id="path4744" inkscape:connector-curvature="0" class="st3" d="M-995-555.7c0.8,3.6,3.2,10.4,9.1,13.7
			c8.3,4.7,34.9,9.4,62,14.3c27.2,4.9,36.8,14.3,56.5,9.4c37.9-9.4,17.9-45.6,20.3-44.7l0.7,0.3c2.7,3.3,5,6.8,6.6,11.3
			c1.3,3.5,1.8,9.2,1.5,14.5c-0.5,9.4-9.5,19-14.9,23.2c-14.7,11.5-37.5,3.8-53.6-2.5c-26-10.2-18.6-6.1-41.9-11.6
			c-23.2-5.5-40.4-8.8-44.4-15.7C-995.9-548.6-996.2-551.4-995-555.7z M-851.1-510l-0.1,0.2l-0.2,0
			C-851.3-509.8-851.2-509.9-851.1-510L-851.1-510z"/>
		<path id="path4746" inkscape:connector-curvature="0" class="st3" d="M-715.5-649.8c-1.9,46.3,18.2,55.4,40.2,35.2
			c4.9-4.5,9.9-14,14.8-20.9c0.8-1.2,1.6-2.5,2.2-3.9c-2.1,3.5-4.6,7.2-7.7,10.5c-9.6,10.8-26,18-36.7,13
			c-9.3-4.4-12.8-22.6-12.4-33.9C-715.2-649.8-715.3-649.8-715.5-649.8L-715.5-649.8z"/>
		<path id="path4748" inkscape:connector-curvature="0" class="st1" d="M-757.2-842.8c0,0,0-0.1,0.1-0.1
			C-757.2-842.9-757.2-842.8-757.2-842.8z M-844.8-840.4c0.2,0.2,0.1,0.6,0.3,0.8c2.5,2.5,5.3,4.9,7.8,7.7c2.9,3.3,5.5,6.9,7.9,9.1
			c4.5,4.1,8.8,6.3,15,7.1c12,1.5,21.1-1.9,31.2-8.6c4.8-3.2,11.4-9,15.2-11.8c6.4-4.8,8.2-4.4,10.1-6.8c2-2.5,2.9-9.1,2.3-12.2
			c-0.5-2.4-1.3-4-3.9-5.6c-2.9-1.8-7.9-3.7-16.5-6.7l0,0h0l0,0h0l0,0h0h0l0,0h0l0,0h0l0,0l0,0h0h0l0,0h0l0,0h0l0,0h0l0,0h0l0,0h0
			l0,0h0l0,0h0l0,0h0h0l0,0h0l0,0l0,0h0l0,0h0l0,0h0h0l0,0h0l0,0h0l0,0h0h0h0l0,0h0l0,0h0l0,0h0h0l0,0h0l0,0h0h0l0,0h0h0l0,0h0l0,0
			h0l-0.1,0l-0.2-0.1h0l-0.1,0l0,0l-0.1,0l-0.1,0l0,0l-0.2,0l0,0l-0.2-0.1l0,0l-0.2,0l0,0l-0.2-0.1l-0.1,0l-0.2,0l0,0l-0.2-0.1
			l-0.2-0.1h0l-0.1,0l-0.1,0l-0.1,0l-0.1,0l0,0l-0.1,0l0,0l-0.2-0.1l0,0l-0.1,0h0l-0.1,0l-0.1,0l0,0l-0.1-0.1l0,0l-0.2-0.1l-0.1,0
			l-0.1,0h0l-0.1-0.1l0,0l-0.2-0.1l0,0l-0.1,0l0,0l-0.1,0l-0.1,0l0,0l-0.1-0.1h0l-0.1,0l-0.1,0l-0.1,0l-0.1,0h0l-0.2-0.1l-0.2-0.1
			l0,0l-0.1,0l0,0l-0.1,0l-0.1,0l0,0l-0.1,0l0,0l-0.1,0l-0.1,0l0,0l-0.1,0l0,0l-0.1,0l-0.1,0l-0.1,0l-0.1-0.1l0,0l-0.1,0l-0.1,0
			l-0.2-0.1h0l-0.1,0l0,0l-0.1,0l-0.1,0l0,0l-0.1,0l0,0l-0.2-0.1l0,0l-0.1,0h0l-0.1,0l-0.1,0l0,0l-0.1,0h0l0,0l0,0l0,0l0,0h0v0h0
			l0,0l0,0l0,0l0,0l-0.1,0l0,0l0,0l0,0l0,0l0,0l0,0l0,0l0,0h0l0,0h0l0,0l0,0l0,0l0,0l0,0l0,0l0,0l-0.1,0l0,0l0,0l0,0l0,0l0,0h0h0
			l0,0l0,0l0,0l0,0h0l0,0l0,0l0,0l0,0l0,0l0,0l0,0h0l0,0l0,0l0,0l0,0l0,0l0,0l0,0l0,0l0,0l0,0l0,0l0,0h0l0,0l0,0l0,0l0,0l0,0h0l0,0
			l0,0l0,0l0,0h0c-8.8-3.4-14.4-5.6-22.4-5.3c-2.8,0.1-5.6,0.4-9.6,2l-0.2,0.1l0,0l-0.2,0.1v0l-0.2,0.1h0v0h0l-0.2,0.1v0l-0.1,0
			l-0.1,0l-0.1,0l0,0h0l-0.2,0.1l0,0l0,0l0,0l-0.2,0.1l0,0h0l-0.2,0.1h0l0,0l-0.1,0l0,0l-0.1,0l-0.2,0.1h0l0,0l-0.1,0l-0.1,0l0,0
			l-0.1,0l0,0l-0.1,0l0,0l-0.1,0l-0.1,0l0,0l-0.1,0h0l-0.1,0l-0.1,0l-0.1,0.1l-0.1,0l0,0l-0.1,0.1l-0.1,0l0,0l-0.1,0l0,0l-0.1,0l0,0
			l-0.1,0.1l-0.1,0l-0.1,0.1h0l-0.1,0.1h0l-0.1,0h0l-0.1,0.1l-0.1,0.1h0l-0.1,0.1l-0.1,0.1l-0.1,0.1l-0.1,0v0l-0.1,0.1l0,0l-0.1,0v0
			l-0.1,0.1l-0.1,0l0,0l-0.1,0.1l-0.1,0.1l0,0l-0.1,0.1l-0.1,0.1l0,0c-0.2,0.1-0.5,0.3-0.8,0.4l-0.1,0.1l-0.1,0.1l0,0l-0.1,0
			l-0.1,0.1l-0.1,0h0l0,0l-0.1,0.1l-0.1,0l-0.1,0l-0.2,0.1l-0.1,0l-0.2,0.1l-0.1,0l-0.2,0.1l-0.1,0l-0.2,0.1l-0.1,0.1l-0.2,0.1
			l-0.1,0l-0.2,0.1l0,0h0l-0.1,0l-0.2,0.1l-0.1,0l-0.2,0.1l0,0l0,0h0v0h0l0,0h0v0h0l0,0l0,0h0l-0.1,0.1h0l0,0l0,0l0,0h0h0v0h0l0,0h0
			v0h0l-0.2,0.1h0l0,0l-0.1,0l-0.2,0.1l-0.1,0l0,0l-0.2,0.1l-0.1,0.1l-0.1,0l-0.1,0.1l-0.1,0l-0.1,0.1l-0.2,0.1l-0.1,0.1l-0.2,0.1
			l-0.1,0.1l-0.1,0l-0.1,0.1l-0.1,0.1l-0.1,0l-0.1,0.1l-0.1,0.1l-0.1,0.1l-0.1,0l-0.1,0.1l-0.1,0l-0.1,0l-0.1,0l0,0l-0.1,0l-0.1,0
			l-0.1,0l0,0l-0.1,0.1l-0.1,0l0,0l-0.1,0l-0.1,0h0l0,0l-0.1,0l0,0l-0.1,0l-0.1,0l-0.1,0l-0.1,0l-0.1,0l-0.1,0l0,0l0,0l0,0l-0.1,0
			l-0.1,0.1l-0.1,0l-0.1,0l-0.1,0l-0.1,0l-0.1,0l-0.1,0l-0.1,0.1l-0.1,0l-0.1,0l-0.1,0l-0.1,0l0,0l0,0l-0.1,0l-0.1,0l-0.1,0l-0.1,0
			l0,0l0,0l-0.1,0l-0.1,0l-0.1,0.1h0l0,0l0,0l-0.1,0l-0.1,0l-0.1,0.1l0,0h0l-0.1,0l-0.3,0.2c-4.1,2.8-8.2,6.6-10.7,10.5
			c-1.4,2.3-3.7,7-1.6,9.7c0,0,5.4,2.8,10.8,6c8.7,5.2,18.7,7.8,27.7,7.3c7.1-0.4,15-2.6,20.7-5.4c5.8-2.8,12.8-7.1,19.7-12.5
			c1.1-0.8,3.1-2.8,4.4-3.4c1.1-0.5,4.7-0.2,4.6,1c-0.1,1-4.4,2.7-5.9,3.8c-7.5,5.6-16,11.1-21.4,13.6c-5.6,2.6-15.1,5.6-21.6,6
			c-5.9,0.3-10.8-0.3-15.9-2c-4.9-1.7-7.9-3.1-13.1-6.1C-841-838.2-842.6-839-844.8-840.4L-844.8-840.4z"/>
		<path id="path4750" inkscape:connector-curvature="0" class="st3" d="M-759.5-842.7c-0.1,0-4.5,2.2-10.3,6.3
			c-5.1,3.6-11,9.2-17,11.7c-12.7,5.4-20.5,5.7-25.9,4.5c-5.4-1.1-6.7-4.5-8.2-8.9c-0.1-0.2-0.2-0.4-0.3-0.7
			c-1.7-0.3-3.3-0.8-4.9-1.3c-4.9-1.7-7.9-3.1-13.1-6.1c-1.7-1-3.3-1.8-5.5-3.2c0.2,0.2,0.1,0.6,0.3,0.8c2.5,2.5,5.3,4.9,7.8,7.7
			c1.5,1.8,3,3.6,4.4,5.3l6.7,6.4c3.4,2.4,7,3.8,11.8,4.4c12,1.5,21.1-1.9,31.2-8.6c4.8-3.2,11.4-9,15.2-11.8
			c4.6-3.5,6.8-4.2,8.4-5.3L-759.5-842.7L-759.5-842.7z M-838.6-839.7c0.2-2.9,1.6-11.2,11.6-22.7c9.9-11.4,12.6-14.2,13.2-14.9
			c-0.5,0.1-1,0.1-1.5,0.2l-3.5,0.9c-0.5,0.2-0.9,0.3-1.4,0.5l-0.2,0.1l0,0l-0.2,0.1v0l-0.2,0.1h0v0h0l-0.2,0.1v0l-0.1,0l-0.1,0
			l-0.1,0l0,0h0l-0.2,0.1l0,0l0,0l0,0l-0.2,0.1l0,0h0l-0.2,0.1h0l0,0l-0.1,0l0,0l-0.1,0l-0.2,0.1h0l0,0l-0.1,0l-0.1,0l0,0l-0.1,0
			l0,0l-0.1,0l0,0l-0.1,0l-0.1,0l0,0l-0.1,0h0l-0.1,0l-0.1,0l-0.1,0.1l-0.1,0l0,0l-0.1,0.1l-0.1,0l0,0l-0.1,0l0,0l-0.1,0l0,0
			l-0.1,0.1l-0.1,0l-0.1,0.1h0l-0.1,0.1h0l-0.1,0h0l-0.1,0.1l-0.1,0.1h0l-0.1,0.1l-0.1,0.1l-0.1,0.1l-0.1,0v0l-0.1,0.1l0,0l-0.1,0v0
			l-0.1,0.1l-0.1,0l0,0l-0.1,0.1l-0.1,0.1l0,0l-0.1,0.1l-0.1,0.1l0,0c-0.2,0.1-0.5,0.3-0.8,0.4l-0.1,0.1l-0.1,0.1l0,0l-0.1,0
			l-0.1,0.1l-0.1,0h0l0,0l-0.1,0.1l-0.1,0l-0.1,0l-0.2,0.1l-0.1,0l-0.2,0.1l-0.1,0l-0.2,0.1l-0.1,0l-0.2,0.1l-0.1,0.1l-0.2,0.1
			l-0.1,0l-0.2,0.1l0,0h0l-0.1,0l-0.2,0.1l-0.1,0l-0.2,0.1l0,0l0,0h0v0h0l0,0h0v0h0l0,0l0,0h0l-0.1,0.1h0l0,0l0,0l0,0h0h0v0h0l0,0h0
			v0h0l-0.2,0.1h0l0,0l-0.1,0l-0.2,0.1l-0.1,0l0,0l-0.2,0.1l-0.1,0.1l-0.1,0l-0.1,0.1l-0.1,0l-0.1,0.1l-0.2,0.1l-0.1,0.1l-0.2,0.1
			l-0.1,0.1l-0.1,0l-0.1,0.1l-0.1,0.1l-0.1,0l-0.1,0.1l-0.1,0.1l-0.1,0.1l-0.1,0l-0.1,0.1l-0.1,0l-0.1,0l-0.1,0l0,0l-0.1,0l-0.1,0
			l-0.1,0l0,0l-0.1,0.1l-0.1,0l0,0l-0.1,0l-0.1,0h0l0,0l-0.1,0l0,0l-0.1,0l-0.1,0l-0.1,0l-0.1,0l-0.1,0l-0.1,0l0,0l0,0l0,0l-0.1,0
			l-0.1,0.1l-0.1,0l-0.1,0l-0.1,0l-0.1,0l-0.1,0l-0.1,0l-0.1,0.1l-0.1,0l-0.1,0l-0.1,0l-0.1,0l0,0l0,0l-0.1,0l-0.1,0l-0.1,0l-0.1,0
			l0,0l0,0l-0.1,0l-0.1,0l-0.1,0.1h0l0,0l0,0l-0.1,0l-0.1,0l-0.1,0.1l0,0h0l-0.1,0l-0.3,0.2c-4.1,2.8-8.2,6.6-10.7,10.5
			c-1.4,2.3-3.7,7-1.6,9.7C-849.3-845.5-844-842.8-838.6-839.7L-838.6-839.7z"/>
		<path id="path4752" inkscape:connector-curvature="0" class="st0" d="M-806.6-871.9c-0.4-0.4,4.8-1.5,6.8,0.1
			c2.1,1.6,1.9,2.9,1.3,3.5C-799.1-867.5-805.2-871.3-806.6-871.9L-806.6-871.9L-806.6-871.9z"/>
		<path id="path4754" inkscape:connector-curvature="0" class="st4" d="M-800.9-575.8c14.9-0.7,30.8-4.4,44.9-12.7
			c9.3-5.5,17.7-13.1,25.5-22.4c-0.2,5.3-0.5,10-0.6,13.2c-16.5,20.1-35.9,31.8-66.7,33.2c-35,1.5-54.2-10.8-60.3-16.8
			c4-2.2,7.2-4.4,9.5-7.6C-848.5-589-829-574.6-800.9-575.8z M-729.9-611.6c0.3-0.3,0.5-0.6,0.7-0.9
			C-729.4-612.2-729.6-611.9-729.9-611.6z"/>
		<path id="path4756" inkscape:connector-curvature="0" class="st4" d="M-792.6-902.3c0,0,9.2-5.3,21.9-2.5
			c10.1,2.3,15.8,11.7,17.7,15.4c0-8.5-3.5-18.5-12.4-23c-9.6-4.9-20.6-0.3-26.6,8.4L-792.6-902.3z"/>
		<path id="path4758" inkscape:connector-curvature="0" class="st4" d="M-849.6-895.9c2.2-2.6,6.6-6.4,13.7-6.5
			c7.9-0.1,12.8,6.4,14.8,9.7c-3-12.1-9.6-20.2-20.1-16.5l0,0l0,0l0,0C-845.8-907.6-848.6-902.3-849.6-895.9L-849.6-895.9z"/>
		<path id="path4760" inkscape:connector-curvature="0" class="st4" d="M-845.7-822.7c1.8,0.4,4.5,1.9,7.9,6.4
			c6.7,8.8,14,14.5,25.5,15.3c12.7,0.8,25.6-8.2,32.1-13.7c4.1-3.4,11.4-9.6,17.7-13.1c2.9-1.6,6.2-2.4,7.7-2.7
			c-0.6-3.4-1.2-6.5-1.7-9.3c-1.8,0.9-5,2.2-9.8,6c-3.5,2.7-10,8.4-14.9,11.8c-3.2,2.2-6.8,4.2-10.3,5.7c-5,2.2-9.9,3.5-13.6,3.6
			c-13.2,0.7-19.5-2.6-25.6-8.9c-2.5-2.6-4.4-5.5-7.6-9.1c-1.4-1.6-3.4-3.6-5.4-5.1C-843.7-835-844.4-829.8-845.7-822.7
			L-845.7-822.7z"/>
		<path id="path4762" inkscape:connector-curvature="0" class="st5" d="M-892.1-746.1c-16.8,18.3-22.4,43.6-19.8,64.9
			c1.6,13.1,8.7,24,16.8,33.5c1.4,1.7,2.8,3.4,4.3,5c0.3,0.3-6.8-5-8-6.1c-27.6-23.9-21.5-71.2,6-97.8
			C-891.9-747.4-890.8-747.4-892.1-746.1L-892.1-746.1z"/>
		<path id="path4764" inkscape:connector-curvature="0" class="st0" d="M-815.7-871.9c-0.7-1.1-3.6-0.5-5.1,0
			c-1.4,0.5-2.5,2.1-1.9,3.1c0.3,0.5,0.9,0.8,1.4,0.7c0.8-0.2,1.6-1,2.6-1.8C-817.6-870.8-816-871.5-815.7-871.9L-815.7-871.9
			L-815.7-871.9z"/>
		<path id="path4766" inkscape:connector-curvature="0" class="st5" d="M-710.3-750.5c16.9,17.7,22.9,36.8,22.4,56.4
			c-0.2,9.1-4.1,20.6-6,27.8c-3.9,14.3,3.3,3.7,5-1c3-8.1,5-21.1,4.7-30.6c-0.8-22.8-11.1-40.4-25.7-52.7
			C-710.6-751.2-711.3-751.5-710.3-750.5z"/>
		<path id="path4768" inkscape:connector-curvature="0" class="st0" d="M-652-650.7c0.3-0.5,0.9-2.7,0.9-3.2
			c1.1-11-20.3-13.5-36.9-12.9c-7.6,0.3-13.4,1.1-17,2.2c-6.1,1.8-9.1,6-9.8,11.1c-1.4,10.5,1.7,32.7,12.2,37.5
			c10.8,5,27.1-2.1,36.7-13C-659.3-636.2-655.2-644.7-652-650.7L-652-650.7z"/>
		<path id="path4770" inkscape:connector-curvature="0" class="st5" d="M-710.5-656c-2.7,3.2,14.4,0.8,26,3c6.4,1.2,11.7,4.9,15.8,5
			c12,0.4,13.7-6.4,4.2-11.6C-676.5-666.3-704.5-663.3-710.5-656L-710.5-656z"/>
		<path id="path4772" inkscape:connector-curvature="0" class="st5" d="M-772.8-954.2c1.9,5.8-2.1,9.2,2.8,11.8
			c3.4,1.8,6.9-1,13.1,0c10.8,1.9,18.1,8,15.5-1.7c-1-3.7-4.9-8.7-9.5-12.7c-8.2-7.2-19.3-12.4-25.5-8.9
			C-779.6-963.8-774.9-960.6-772.8-954.2L-772.8-954.2z"/>
		<path id="path4774" inkscape:connector-curvature="0" class="st5" d="M-727.6-828c-0.2-1.5-1.8-3.5-3.5-5.1
			c-3.1-2.9-7.2-5-9.5-3.6c-4.2,2.6,0.4,14.7,3.9,15.9C-731.3-818.9-727.1-823.8-727.6-828z"/>
		<path id="path4776" inkscape:connector-curvature="0" class="st5" d="M-829.1-882.1c-0.5-0.2-0.1-1.8-2.2-4.3
			c-2.2-2.5-4-2.6-3.5-4.3c0.5-1.8,3.6,0,5.3,3C-827.8-884.6-828.6-881.9-829.1-882.1L-829.1-882.1z"/>
		<path id="path4778" inkscape:connector-curvature="0" class="st5" d="M-769.8-881.7c-0.6-0.2,0-2.2-2.6-5.4
			c-2.6-3.2-5.1-3.4-4.4-5.5s4.7,0.2,6.7,4C-768.1-884.8-769.2-881.5-769.8-881.7z"/>
	</g>
</g>
</svg>
