<?xml version="1.0" encoding="utf-8"?>
<!-- Generator: Adobe Illustrator 22.1.0, SVG Export Plug-In . SVG Version: 6.00 Build 0)  -->
<svg version="1.1" id="Layer_1" xmlns="http://www.w3.org/2000/svg" xmlns:xlink="http://www.w3.org/1999/xlink" x="0px" y="0px"
	 viewBox="0 0 23.8 9.7" style="enable-background:new 0 0 23.8 9.7;" xml:space="preserve">
<style type="text/css">
	.st0{fill:#FFFFFF;}
</style>
<g>
	<g>
		<g>
			<g>
				<polygon class="st0" points="4.1,1.7 3,3.4 3.3,1.7 2.6,1.7 1.5,3.4 1.8,1.7 1.2,1.7 0.8,4.3 1.4,4.3 2.6,2.5 2.4,4.3 3,4.3 
					4.6,1.7 				"/>
				<polygon class="st0" points="4.6,2.4 3.8,4.3 4.3,4.3 5.1,2.4 				"/>
				<polygon class="st0" points="5.4,1.7 4.8,1.7 4.6,2.2 5.2,2.2 				"/>
				<path class="st0" d="M7,2.5c-0.1,0-0.2-0.1-0.3-0.1C6.5,2.4,6.2,2.5,6,2.7l0.1-0.2H5.6L4.8,4.3h0.5l0.3-0.8
					c0.1-0.2,0.2-0.3,0.2-0.4C6,3,6,2.9,6.1,2.9c0.1,0,0.2-0.1,0.2-0.1c0.1,0,0.1,0,0.1,0c0,0,0,0.1,0,0.1c0,0.1,0,0.2-0.1,0.4
					L6,4.3h0.5L7,3.2C7.1,3,7.1,2.9,7.1,2.8c0-0.1,0-0.2,0-0.2C7.1,2.5,7,2.5,7,2.5z"/>
				<path class="st0" d="M8.2,2.9h0.3l0.2-0.4H8.4l0.3-0.7L8,2.1L7.8,2.4H7.6L7.4,2.9h0.2L7.3,3.6C7.3,3.8,7.2,3.9,7.2,4
					c0,0.1,0,0.2,0,0.2c0,0.1,0.1,0.1,0.1,0.1c0.1,0,0.1,0,0.2,0c0.1,0,0.3,0,0.4-0.1l0,0l0.1-0.4l0,0c-0.2,0-0.2,0.1-0.3,0
					c0,0,0,0,0,0c0,0,0-0.1,0.1-0.3L8.2,2.9z"/>
				<path class="st0" d="M10.3,2.7C10.2,2.5,10,2.4,9.8,2.4C9.5,2.4,9.3,2.5,9,2.7C8.8,2.8,8.6,3.1,8.5,3.4C8.4,3.6,8.4,3.9,8.4,4
					C8.5,4.2,8.7,4.4,9,4.4c0.2,0,0.4,0,0.6-0.1C9.8,4.1,9.9,4,10.1,3.8l0,0L9.6,3.7l0,0C9.5,3.8,9.5,3.8,9.4,3.9
					c-0.1,0-0.1,0.1-0.2,0.1C9.1,3.9,9,3.9,9,3.8c0-0.1,0-0.2,0-0.3h1.2l0,0C10.4,3.1,10.4,2.9,10.3,2.7z M9.8,3.2H9.1
					c0-0.1,0.1-0.2,0.2-0.3c0.1-0.1,0.2-0.1,0.3-0.1c0.1,0,0.2,0,0.2,0.1C9.9,3,9.8,3.1,9.8,3.2z"/>
				<path class="st0" d="M12.2,2.5c-0.1-0.1-0.2-0.1-0.3-0.1c-0.1,0-0.2,0-0.2,0.1c-0.1,0-0.1,0.1-0.2,0.2l0.1-0.2H11l-0.8,1.9h0.5
					L11,3.7c0.1-0.3,0.2-0.5,0.3-0.6C11.4,3,11.4,3,11.5,2.9c0.1,0,0.1-0.1,0.2-0.1c0.1,0,0.1,0,0.2,0.1l0,0L12.2,2.5L12.2,2.5z"/>
			</g>
			<g>
				<path class="st0" d="M6.9,7C7,7.4,7.1,7.6,7.4,7.6C7.7,7.7,8,7.5,8.1,7.3c0.1-0.3,0-0.6-0.2-0.7c-0.2-0.2-0.6-0.2-0.8,0
					C6.7,6.9,6.3,7.3,6,7.7C5.8,7.8,5.7,7.9,5.6,8C5.1,8.4,4.2,8.3,3.8,7.8C3.4,7.2,3.5,6.4,4.1,6c0.6-0.4,1.4-0.2,1.8,0.4
					C6,6.5,6,6.5,5.9,6.6C5.7,6.7,5.6,6.9,5.5,7c-0.1,0,0-0.1-0.1-0.1C5.3,6.6,5.1,6.4,4.8,6.4c-0.3,0-0.5,0.2-0.6,0.4
					c-0.1,0.3,0,0.5,0.3,0.7C4.7,7.7,5,7.7,5.3,7.5C5.7,7,6.2,6.6,6.6,6.2C7.2,5.7,7.8,5.6,8.4,6c0.4,0.3,0.6,0.8,0.4,1.3
					c-0.1,0.5-0.5,0.8-1,0.9c-0.5,0.1-1-0.2-1.3-0.6c-0.1-0.1-0.1-0.2,0-0.3C6.7,7.3,6.8,7.2,6.9,7"/>
				<path class="st0" d="M16.5,6.9c0,0.4,0,0.8,0,1.2c0,0.1,0,0.2-0.2,0.2c-0.5,0-0.5,0-0.5-0.5c0-0.6,0-1.1,0-1.7
					c0-0.2,0.1-0.2,0.2-0.2c0.1,0,0.1,0,0.2,0c0.3,0,0.3,0,0.3,0.3c0.1,0,0.1-0.1,0.2-0.1C17,5.7,17.5,5.7,17.8,6
					c0.1,0.1,0.1,0.1,0.2,0c0.2-0.2,0.4-0.2,0.6-0.3c0.6,0,0.9,0.3,0.9,0.8c0,0.5,0,1,0,1.5c0,0.1,0,0.1-0.1,0.2
					c-0.5,0-0.5,0-0.5-0.5c0-0.3,0-0.6,0-0.9c0-0.3-0.2-0.5-0.4-0.4c-0.2,0-0.4,0.2-0.4,0.4c0,0.4,0,0.8,0,1.2c0,0.1,0,0.2-0.2,0.2
					c-0.5,0-0.5,0-0.5-0.5c0-0.3,0-0.7,0-1c-0.1-0.3-0.3-0.4-0.5-0.3C16.5,6.5,16.4,6.7,16.5,6.9"/>
				<path class="st0" d="M0.8,5.9c0-0.4,0-0.8,0-1.1c0-0.1,0-0.2,0.2-0.2c0.4,0,0.4,0,0.4,0.5c0,0.2,0,0.5,0,0.7
					c0,0.2,0,0.2,0.2,0.1c0.8-0.3,1.6,0.2,1.7,1c0.1,0.7-0.4,1.4-1.1,1.4C1.5,8.3,0.9,7.8,0.9,7C0.8,6.7,0.8,6.3,0.8,5.9 M2.1,6.4
					C1.8,6.4,1.5,6.7,1.5,7c0,0.3,0.3,0.6,0.6,0.6c0.3,0,0.6-0.3,0.6-0.6C2.7,6.7,2.4,6.4,2.1,6.4"/>
				<path class="st0" d="M20.5,8.1c0,0.4,0,0.8,0,1.2c0,0.1,0,0.2-0.2,0.2c-0.5,0-0.5,0-0.5-0.5c0-0.7,0-1.4,0-2.1
					c0-0.5,0.4-0.9,0.8-1.1c0.5-0.2,1,0,1.3,0.3c0.4,0.4,0.4,1.1,0.1,1.5c-0.3,0.5-0.9,0.7-1.4,0.5C20.7,8.2,20.6,8.2,20.5,8.1
					 M21.7,7c0-0.3-0.3-0.6-0.6-0.6c-0.3,0-0.6,0.3-0.6,0.6c0,0.3,0.3,0.6,0.6,0.6C21.4,7.6,21.7,7.3,21.7,7"/>
				<path class="st0" d="M13.6,8.2c-0.2-0.1-0.4-0.2-0.4-0.5c-0.1-0.5,0.1-0.8,0.6-1c0.3-0.1,0.5,0,0.8,0c0,0,0.1,0.1,0.1,0
					c0,0,0-0.1,0-0.2c-0.1-0.2-0.2-0.3-0.4-0.3c-0.2,0-0.4,0-0.6,0.1c-0.1,0-0.1,0-0.2-0.1c-0.2-0.4-0.2-0.4,0.3-0.5
					c0.3-0.1,0.5-0.1,0.8,0c0.5,0.1,0.8,0.4,0.8,0.9c0,0.5,0,1,0,1.5c0,0.1,0,0.1-0.1,0.1c-0.2,0-0.3,0-0.5,0c-0.1,0,0-0.2-0.1-0.2
					C14.3,8.3,14.1,8.3,13.6,8.2 M14.2,7.8c0.1,0,0.3-0.1,0.4-0.2c0.1-0.2,0.1-0.3-0.2-0.4c-0.1,0-0.2,0-0.3,0
					c-0.2,0-0.3,0.2-0.3,0.3C13.8,7.7,13.9,7.8,14.2,7.8"/>
				<path class="st0" d="M11.7,8.3c-0.3,0-0.7-0.2-1-0.7c-0.2-0.5-0.2-0.9,0.1-1.4c0.3-0.4,0.8-0.5,1.3-0.5c0.2,0,0.4,0.1,0.6,0.3
					c0.1,0.1,0.1,0.1,0,0.2c0,0-0.1,0.1-0.1,0.1c-0.1,0.1-0.1,0.2-0.2,0.2c-0.1,0-0.2-0.1-0.3-0.1c-0.3-0.1-0.6-0.1-0.7,0.1
					c-0.2,0.2-0.2,0.6,0,0.9c0.2,0.2,0.5,0.3,0.8,0.2c0.1,0,0.2-0.2,0.2-0.1c0.1,0,0.2,0.2,0.3,0.2c0.1,0.1,0.1,0.2,0,0.3
					C12.5,8.2,12.3,8.3,11.7,8.3"/>
				<path class="st0" d="M9.1,6.3c0-0.4,0-0.8,0-1.2C9.1,5,9.2,5,9.3,5c0.5,0,0.5,0,0.5,0.5c0,0.1,0,0.1,0,0.2c0,0.1,0,0.1,0.1,0.1
					c0,0,0,0,0,0c0.1,0,0.3-0.1,0.4,0c0.1,0.1,0,0.3,0,0.5c0,0.1-0.1,0.1-0.1,0.1c-0.1,0-0.3-0.1-0.4,0c-0.1,0.1,0,0.3,0,0.5
					c0,0.2,0,0.3,0,0.5c0,0.3,0.1,0.4,0.4,0.3c0.2-0.1,0.2,0,0.2,0.2c0,0.4,0,0.4-0.4,0.5C9.4,8.3,9.1,8.1,9.1,7.5
					C9.1,7.1,9.1,6.7,9.1,6.3"/>
			</g>
		</g>
	</g>
	<g>
		<rect x="15" y="0.9" class="st0" width="0.3" height="0.3"/>
		<rect x="15.5" y="0.9" class="st0" width="0.3" height="0.3"/>
		<path class="st0" d="M17.1,1.9V1.4h-0.3v0.5l-0.4,0.4c0,0,0-0.1-0.1-0.1c0.1-0.1,0.1-0.2,0.1-0.3c0-0.2-0.1-0.3-0.2-0.4
			c0.2-0.5,0.1-1-0.4-1.3c-0.5-0.2-1-0.1-1.3,0.4c-0.1,0.3-0.1,0.6,0,0.9c0,0-0.1,0-0.1,0.1c-0.1,0.1-0.1,0.2-0.1,0.3
			c0,0.1,0,0.2,0.1,0.3c0,0-0.1,0.1-0.1,0.1l-0.4-0.4V1.4h-0.3v0.4h-0.4v0.3h0.5l0.5,0.5c-0.4,0.7-0.1,1.5,0.6,1.8
			c0.7,0.4,1.5,0.1,1.8-0.6c0.2-0.4,0.2-0.9,0-1.3L17,2.1h0.5V1.9L17.1,1.9L17.1,1.9z M15.4,0.5c0.4,0,0.7,0.3,0.7,0.7
			c0,0.1,0,0.3-0.1,0.4h-1.1c-0.1-0.1-0.1-0.3-0.1-0.4C14.7,0.8,15,0.5,15.4,0.5z M14.6,1.9C14.6,1.9,14.7,1.9,14.6,1.9l1.5,0
			c0.1,0,0.1,0.1,0.1,0.1c0,0,0,0.1,0,0.1c0,0,0,0-0.1,0c0,0,0,0,0,0h-1.4c0,0,0,0,0,0C14.6,2.1,14.6,2.1,14.6,1.9
			C14.6,2,14.6,1.9,14.6,1.9z M15.4,4.3c-0.6,0-1.1-0.5-1.1-1.1c0-0.3,0.1-0.6,0.4-0.8c0,0,0,0,0,0h1.2v0.8h0.3V2.5
			c0.2,0.2,0.3,0.5,0.3,0.7C16.5,3.8,16,4.3,15.4,4.3z"/>
		<rect x="15.2" y="2.7" class="st0" width="0.3" height="0.3"/>
		<rect x="15.2" y="3.2" class="st0" width="0.3" height="0.3"/>
	</g>
</g>
</svg>
