<?xml version="1.0" encoding="utf-8"?>
<!-- Generator: Adobe Illustrator 16.0.0, SVG Export Plug-In . SVG Version: 6.00 Build 0)  -->
<!DOCTYPE svg PUBLIC "-//W3C//DTD SVG 1.1//EN" "http://www.w3.org/Graphics/SVG/1.1/DTD/svg11.dtd">
<svg version="1.1" id="Icons" xmlns="http://www.w3.org/2000/svg" xmlns:xlink="http://www.w3.org/1999/xlink" x="0px" y="0px"
	 width="102.5px" height="102.279px" viewBox="0 0 102.5 102.279" enable-background="new 0 0 102.5 102.279" xml:space="preserve">
<g>
	<polyline fill="none" stroke="#FFFFFF" stroke-width="4" points="64.085,81.412 2,81.412 2,13.5 100.5,13.5 100.5,81.412 
		94.585,81.412 	"/>
	<line fill="#FFFFFF" stroke="#FFFFFF" stroke-width="4" x1="11" y1="67.23" x2="51.302" y2="67.23"/>
	<line fill="#FFFFFF" stroke="#FFFFFF" stroke-width="4" x1="11" y1="50.199" x2="64.58" y2="50.199"/>
	<line fill="#FFFFFF" stroke="#FFFFFF" stroke-width="4" x1="64.58" y1="58.715" x2="11" y2="58.715"/>
	<line fill="#FFFFFF" stroke="#FFFFFF" stroke-width="4" x1="11" y1="41.166" x2="64.58" y2="41.166"/>
	<rect x="2" y="2" fill="#FFFFFF" stroke="#FFFFFF" stroke-width="4" width="98.5" height="11.5"/>
	<line fill="#FFFFFF" stroke="#FFFFFF" stroke-width="4" x1="6.5" y1="7.668" x2="10.238" y2="7.668"/>
	<line fill="#FFFFFF" stroke="#FFFFFF" stroke-width="4" x1="12.972" y1="7.668" x2="16.712" y2="7.668"/>
	<line fill="#FFFFFF" stroke="#FFFFFF" stroke-width="4" x1="19.443" y1="7.668" x2="23.184" y2="7.668"/>
	<g>
		<rect x="13" y="23.635" fill="#FFFFFF" stroke="#FFFFFF" stroke-width="4" width="31" height="7.42"/>
	</g>
	<g>
		<polyline fill="#FFFFFF" stroke="#FFFFFF" stroke-width="4" points="71.996,38.98 71.996,36.576 79.45,23.949 86.904,36.576 
			86.906,38.98 		"/>
		<polyline fill="#FFFFFF" stroke="#FFFFFF" stroke-width="4" points="86.907,81.027 86.906,38.08 71.995,38.082 71.993,81.029 		
			"/>
		<path fill="#FFFFFF" stroke="#FFFFFF" stroke-width="4" d="M71.987,95.506v3.539c0.002,0.688,0.731,1.234,1.638,1.234h11.642
			c0.91,0,1.646-0.549,1.646-1.232v-3.543"/>
		<rect x="71.992" y="81.417" fill="#FFFFFF" stroke="#FFFFFF" stroke-width="4" width="14.916" height="8.523"/>
	</g>
</g>
</svg>
